<svg width="400" height="400" viewBox="0 0 400 400" fill="none" xmlns="http://www.w3.org/2000/svg">
<path d="M77.6578 291.184V380L119.697 304.211L170.026 287.039L222.132 217.171L149.303 249.145L161.737 227.829L236.934 201.776L289.039 131.316L189.566 176.908L203.184 152.632L303.25 117.105L355.355 47.2368L135.684 146.711C137.066 143.553 139.829 136.289 139.829 132.5C139.829 128.711 137.855 124.211 136.868 122.434C136.868 123.816 134.737 128.829 126.21 137.829C115.553 149.079 103.71 144.342 89.4999 162.697C78.1315 177.382 87.1315 197.632 93.0526 205.921C93.2499 205.526 93.9999 203.197 95.421 197.039C96.842 190.882 104.303 186.579 107.855 185.197L161.737 166.25L77.6578 291.184Z" fill="url(#paint0_linear_4_14)"/>
<path d="M358.316 197.632C358.316 285.27 287.27 356.316 199.632 356.316C166.872 356.316 136.432 346.389 111.153 329.379L101.931 346.005C129.96 364.499 163.539 375.263 199.632 375.263C297.735 375.263 377.263 295.735 377.263 197.632C377.263 153.725 361.333 113.539 334.938 82.5383L323.282 98.1678C345.198 125.378 358.316 159.973 358.316 197.632Z" fill="url(#paint1_linear_4_14)"/>
<path d="M72.9211 322.12C41.4266 290.067 22 246.118 22 197.632C22 99.5284 101.528 20 199.632 20C242.852 20 282.468 35.4362 313.266 61.0964L293.812 69.9055C267.47 50.4491 234.894 38.9474 199.632 38.9474C111.993 38.9474 40.9474 109.993 40.9474 197.632C40.9474 233.503 52.8499 266.594 72.9211 293.172V322.12Z" fill="url(#paint2_linear_4_14)"/>
<defs>
<linearGradient id="paint0_linear_4_14" x1="216.507" y1="47.2368" x2="216.507" y2="380" gradientUnits="userSpaceOnUse">
<stop stop-color="#C6972D"/>
<stop offset="0.0677083" stop-color="#EBC564"/>
<stop offset="0.140625" stop-color="#C4952B"/>
<stop offset="0.234375" stop-color="#C7982F"/>
<stop offset="0.359375" stop-color="#F2E47D"/>
<stop offset="0.489583" stop-color="#E2C758"/>
<stop offset="0.645833" stop-color="#F5E37F"/>
<stop offset="0.755208" stop-color="#DCAC58"/>
<stop offset="0.875" stop-color="#E3B663"/>
<stop offset="1" stop-color="#C6972D"/>
</linearGradient>
<linearGradient id="paint1_linear_4_14" x1="199.632" y1="20" x2="199.632" y2="375.263" gradientUnits="userSpaceOnUse">
<stop stop-color="#D5B158"/>
<stop offset="0.0579589" stop-color="#E4C562"/>
<stop offset="0.175848" stop-color="#C3962C"/>
<stop offset="0.356148" stop-color="#F3E079"/>
<stop offset="0.434741" stop-color="#EED55E"/>
<stop offset="0.557253" stop-color="#F2EC80"/>
<stop offset="0.709815" stop-color="#D1A14E"/>
<stop offset="0.774538" stop-color="#DBB564"/>
<stop offset="0.820769" stop-color="#D4A347"/>
<stop offset="0.910919" stop-color="#D9B864"/>
<stop offset="1" stop-color="#956D29"/>
</linearGradient>
<linearGradient id="paint2_linear_4_14" x1="199.632" y1="20" x2="199.632" y2="375.263" gradientUnits="userSpaceOnUse">
<stop stop-color="#D5B158"/>
<stop offset="0.0579589" stop-color="#E4C562"/>
<stop offset="0.175848" stop-color="#C3962C"/>
<stop offset="0.356148" stop-color="#F3E079"/>
<stop offset="0.434741" stop-color="#EED55E"/>
<stop offset="0.557253" stop-color="#F2EC80"/>
<stop offset="0.709815" stop-color="#D1A14E"/>
<stop offset="0.774538" stop-color="#DBB564"/>
<stop offset="0.820769" stop-color="#D4A347"/>
<stop offset="0.910919" stop-color="#D9B864"/>
<stop offset="1" stop-color="#956D29"/>
</linearGradient>
</defs>
</svg>
